<svg width="192.000031" height="54.000000" viewBox="0 0 192 54" fill="none" xmlns="http://www.w3.org/2000/svg" xmlns:xlink="http://www.w3.org/1999/xlink">
	<desc>
			Created with Pixso.
	</desc>
	<defs>
		<radialGradient id="paint_radial_132_69_0" cx="0.000000" cy="0.000000" r="1.000000" gradientUnits="userSpaceOnUse" gradientTransform="translate(16.3933 32.9006) rotate(-123.837) scale(11.7426 9.1391)">
			<stop stop-color="#1D82FF"/>
			<stop offset="0.499486" stop-color="#67ABFF"/>
			<stop offset="0.992270" stop-color="#6BFFFA"/>
		</radialGradient>
		<linearGradient id="paint_linear_132_68_0" x1="40.061241" y1="37.817513" x2="0.194012" y2="31.928936" gradientUnits="userSpaceOnUse">
			<stop offset="0.006260" stop-color="#79A1FF"/>
			<stop offset="0.552486" stop-color="#0071FC"/>
			<stop offset="1.000000" stop-color="#6BFFFA"/>
		</linearGradient>
	</defs>
	<rect id="画板 6" width="192.000000" height="54.000000" transform="translate(0.000031 0.000000)" fill="#FFFFFF" fill-opacity="0"/>
	<rect id="画板 4" width="40.328762" height="28.000000" transform="translate(0.000031 13.000000)" fill="#FFFFFF" fill-opacity="0"/>
	<path id="多边形 7" d="M11.0201 26.1638C12.9474 31.4404 13.892 31.4898 11.9008 37.353C21.3535 32.3054 25.9156 23.7741 26.1847 13.1193C21.4363 20.3953 13.5679 25.766 11.0201 26.1638Z" fill="#59A4FF" fill-opacity="1.000000" fill-rule="evenodd"/>
	<path id="多边形 8" d="M34.5456 29.3212C27.8848 29.6252 25.4662 29.627 21.3459 29.3288C19.7498 29.2133 17.566 29.0562 14.8478 27.9676C13.1242 27.2773 8.9249 24.5479 8.9249 24.5479C7.60455 30.424 8.48788 27.8764 5.57193 32.0719C23.0106 40.248 28.7401 33.7314 34.5456 29.3212Z" fill="url(#paint_radial_132_69_0)" fill-opacity="1.000000" fill-rule="evenodd"/>
	<path id="多边形 9" d="M40.1737 37.5809C28.869 36.7072 21.1188 33.7032 8.93781 21.7046C7.1077 27.0205 5.12994 29.3516 0 32.3371C16.4443 42.5953 25.1417 42.2597 40.1737 37.5809Z" fill="url(#paint_linear_132_68_0)" fill-opacity="1.000000" fill-rule="evenodd"/>
	<path id="KumaCMS" d="M53.4795 37.2244Q53.7954 34.9865 53.9803 31.9334Q54.173 28.8726 54.173 25.8195Q54.173 19.8979 53.4795 16.7448L57.5865 17.0601C57.2475 19.1827 57.0266 21.9564 56.9238 25.3812Q59.0043 23.0202 60.9153 20.7054Q62.8262 18.3829 63.9898 16.7141L67.9041 17.8215Q66.4863 18.9212 64.2595 21.2053Q62.0326 23.4893 59.6362 26.2579Q61.9401 29.1572 64.4598 32.0411Q66.9872 34.925 68.9444 36.9091L64.6524 37.2244Q63.5506 35.4941 57.8408 28.4035L56.893 29.534Q56.9547 33.8176 57.2706 36.9091L53.4795 37.2244ZM149.145 35.5248C148.323 36.0683 147.45 36.4861 146.525 36.7784C145.601 37.0757 144.56 37.2244 143.405 37.2244C141.216 37.2244 139.364 36.7784 137.849 35.8863Q136.388 35.0265 135.402 33.7887L135.402 33.7885Q134.853 33.1001 134.451 32.2949C133.706 30.7927 133.334 29.1392 133.334 27.3345C133.334 25.4427 133.737 23.6893 134.543 22.0743C135.355 20.4542 136.524 19.157 138.049 18.1829C139.575 17.2037 141.37 16.7141 143.435 16.7141C143.877 16.7141 144.203 16.7243 144.414 16.7448C146.094 16.873 147.766 17.3267 149.43 18.106L148.637 22.1358C148.154 21.3155 147.455 20.6541 146.541 20.1517C145.626 19.6441 144.632 19.3903 143.559 19.3903C142.233 19.3903 141.054 19.7748 140.022 20.5439C138.994 21.3078 138.201 22.3152 137.641 23.5662C137.081 24.8172 136.801 26.1143 136.801 27.4576C136.801 28.8624 137.086 30.0493 137.656 31.0182C138.226 31.9821 138.974 32.7025 139.899 33.1793C140.823 33.6509 141.822 33.8868 142.896 33.8868C145.233 33.8868 147.432 32.8152 149.492 30.6722L149.145 35.5248ZM150.913 37.2244C151.606 34.4918 152.21 31.0746 152.724 26.9731C153.168 23.4581 153.39 20.5309 153.39 18.1915C153.39 17.7977 153.383 17.4206 153.371 17.0601L157.478 16.7448C158.048 19.2468 158.821 21.941 159.797 24.8275C160.773 27.7139 161.821 30.3748 162.941 32.8101C164.056 30.4825 165.096 27.9062 166.062 25.0812C167.027 22.2563 167.826 19.4775 168.458 16.7448L172.596 17.0601Q172.579 17.5778 172.579 18.1412C172.579 20.4889 172.8 23.4328 173.243 26.9731C173.757 31.0746 174.361 34.4918 175.054 37.2244L171.24 36.9091C171.241 36.7769 171.242 36.6429 171.242 36.507Q171.242 33.8566 170.87 30.2646Q170.477 26.3886 169.814 22.6664C167.965 27.0807 166.367 31.8283 165.021 36.9091L160.914 37.2244Q158.834 29.2879 156.122 22.7049Q155.459 26.2886 155.058 30.18C154.815 32.5856 154.694 34.6892 154.694 36.4908Q154.694 36.7028 154.696 36.9091L150.913 37.2244ZM179.603 26.7962C178.719 26.3348 178.018 25.6888 177.499 24.8582C176.986 24.0276 176.729 23.1407 176.729 22.1973Q176.729 21.6887 176.836 21.2039Q177.028 20.34 177.561 19.5518Q178.401 18.3214 180.212 17.5677C181.424 17.0652 182.937 16.814 184.75 16.814C186.559 16.814 188.618 17.0858 190.93 17.6292L190.113 21.5359C187.694 19.921 185.567 19.1135 183.733 19.1135Q182.084 19.1135 181.1 19.9229Q180.995 20.0096 180.897 20.1055C180.225 20.7669 179.888 21.5385 179.888 22.4203Q179.888 22.915 180.038 23.3588Q180.136 23.6463 180.296 23.9123C180.569 24.3635 180.959 24.7147 181.468 24.9659C182.141 25.2838 182.785 25.5222 183.402 25.6811C184.023 25.8349 184.82 26.0067 185.79 26.1964C186.818 26.386 187.642 26.5757 188.264 26.7654C188.886 26.9551 189.438 27.2704 189.921 27.7114C190.45 28.1728 190.861 28.7291 191.154 29.3802C191.446 30.0313 191.593 30.7132 191.593 31.4258C191.593 32.4359 191.292 33.3869 190.691 34.279Q189.797 35.6171 187.886 36.4477C186.612 37.0065 185.02 37.2859 183.109 37.2859C181.213 37.2859 179.118 37.0014 176.821 36.4323L176.32 31.9642C179.541 33.5381 182.192 34.3251 184.272 34.3251C185.516 34.3251 186.44 34.0585 187.046 33.5253C187.658 32.987 187.963 32.341 187.963 31.5873C187.963 31.1669 187.858 30.7465 187.647 30.3261C187.314 29.675 186.787 29.1931 186.068 28.8803C185.354 28.5624 184.344 28.2446 183.04 27.9267C182.916 27.8857 182.595 27.8036 182.076 27.6806C181.563 27.5524 181.1 27.4166 180.689 27.273C180.279 27.1243 179.916 26.9654 179.603 26.7962ZM81.8218 37.2244C82.0118 36.1119 82.1608 35.2095 82.2687 34.5174Q81.0667 35.7709 79.6103 36.4938C78.6446 36.9809 77.6891 37.2244 76.7439 37.2244C75.773 37.2244 74.91 36.945 74.1548 36.3862Q73.908 36.2052 73.6857 35.9979Q72.8878 35.254 72.4057 34.1713C71.9947 33.2433 71.7687 32.2333 71.7276 31.1413L71.6891 29.4725Q71.6583 27.1115 71.5812 25.535C71.5298 24.4839 71.4194 23.4355 71.2499 22.3896L75.0718 22.0743C74.7122 24.3199 74.5324 26.4809 74.5324 28.5573C74.5324 29.5673 74.5529 30.3235 74.5941 30.826Q74.7174 32.9141 75.8192 33.8498Q76.7141 34.6097 78.2542 34.6097C79.2661 34.6097 80.1292 34.3482 80.8432 33.8253C81.5623 33.2972 82.13 32.6666 82.5461 31.9334Q82.6463 30.5414 82.6463 29.1572C82.6463 26.5527 82.3714 24.3071 81.8218 22.4203L85.6437 22.105Q85.2045 25.2504 85.2045 28.4958C85.2045 31.9616 85.5615 34.7661 86.2755 36.9091L81.8218 37.2244ZM88.8928 37.2244C89.4425 34.4507 89.7173 31.7411 89.7173 29.0956C89.7173 26.6193 89.4425 24.3942 88.8928 22.4203L93.0307 22.0743C92.8611 22.869 92.7019 23.7816 92.5529 24.8121C93.3337 23.9507 94.207 23.2791 95.1728 22.7972C96.1437 22.3152 97.1017 22.0743 98.0469 22.0743C99.0589 22.0743 99.9271 22.3742 100.651 22.9741C101.376 23.5688 101.928 24.3712 102.308 25.3812Q103.385 24.0239 104.771 23.1666L104.774 23.165Q104.933 23.0662 105.097 22.9741C106.161 22.3742 107.219 22.0743 108.272 22.0743C109.726 22.0743 110.871 22.6562 111.709 23.82C112.551 24.9838 112.996 26.4271 113.042 28.1497L113.073 29.8185C113.093 31.3925 113.129 32.705 113.18 33.756C113.232 34.8071 113.342 35.8581 113.512 36.9091L109.69 36.9091Q110.229 33.5407 110.229 30.6722C110.229 29.7032 110.209 28.9675 110.168 28.465C110.08 27.1423 109.752 26.1835 109.181 25.5888C108.616 24.989 107.787 24.689 106.692 24.689C105.809 24.689 105.031 24.9146 104.358 25.3658C103.685 25.817 103.138 26.3784 102.716 27.05C102.778 27.4294 102.809 27.796 102.809 28.1497L102.847 29.8185C102.868 31.3925 102.904 32.705 102.955 33.756C103.007 34.8071 103.117 35.8581 103.287 36.9091L99.4648 36.9091Q100.004 33.5407 100.004 30.6722C100.004 29.7032 99.9836 28.9675 99.9425 28.465C99.8551 27.1423 99.5264 26.1835 98.9562 25.5888C98.3911 24.989 97.5615 24.689 96.4673 24.689C95.5016 24.689 94.6591 24.9556 93.9399 25.4888C93.2259 26.022 92.6788 26.6475 92.2986 27.3653C92.237 28.2676 92.2062 29.2007 92.2062 30.1646C92.2062 32.5589 92.3757 34.8071 92.7148 36.9091L88.8928 37.2244ZM121.904 37.2552Q120.371 37.2552 119.177 36.6177L119.177 36.6173Q118.848 36.4414 118.545 36.217C117.61 35.5248 116.893 34.6225 116.395 33.5099Q116.001 32.6187 115.817 31.6863Q115.655 30.8646 115.655 30.0108C115.655 28.647 115.961 27.355 116.572 26.1348C117.183 24.9146 118.026 23.9328 119.099 23.1894C120.173 22.446 121.383 22.0743 122.729 22.0743C124.434 22.0743 125.801 22.61 126.828 23.6816C126.725 23.1535 126.62 22.7331 126.512 22.4203L130.496 22.105C130.198 24.202 130.049 26.3322 130.049 28.4958C130.049 31.9616 130.406 34.7661 131.12 36.9091L126.512 37.2244L126.897 34.9865Q126.223 35.8355 125.353 36.3668Q123.9 37.2552 121.904 37.2552ZM119.13 30.0723Q119.13 32.4333 120.078 33.6176Q120.263 33.8471 120.485 34.0318L120.485 34.032Q121.402 34.7943 122.952 34.7943C124.021 34.7943 124.907 34.5866 125.611 34.1713C126.319 33.7509 126.841 33.1921 127.175 32.4948C127.283 31.2387 127.337 30.1057 127.337 29.0956C127.337 28.2343 127.306 27.3832 127.244 26.5424C126.905 25.8298 126.42 25.2914 125.788 24.9274C125.156 24.5583 124.419 24.3737 123.576 24.3737C122.107 24.3737 120.997 24.9146 120.247 25.9964C119.503 27.0782 119.13 28.4368 119.13 30.0723Z" fill="#333333" fill-opacity="1.000000" fill-rule="evenodd"/>
</svg>
