<svg width="46.000137" height="32.000076" viewBox="0 0 46.0001 32.0001" fill="none" xmlns="http://www.w3.org/2000/svg" xmlns:xlink="http://www.w3.org/1999/xlink">
	<desc>
			Created with Pixso.
	</desc>
	<defs/>
	<path id="矩形 2" d="M0.000114441 9.93893L17.6925 6.10352e-05L17.6924 9.93893L8.82185 14.9084L0.000114441 9.93893Z" fill="#2A00E0" fill-opacity="1.000000" fill-rule="evenodd"/>
	<path id="矩形 4" d="M0.000114441 22.0612L17.6924 32.0001L17.6924 22.0613L8.82187 17.0919L0.000114441 22.0612Z" fill="#2A00E0" fill-opacity="1.000000" fill-rule="evenodd"/>
	<path id="多边形 1" d="M23 11.878L15.7828 15.9507L23 20.0234L30.2172 15.9507L23 11.878Z" fill="#E00000" fill-opacity="1.000000" fill-rule="evenodd"/>
	<path id="多边形 2" d="M7.16742 15.9991L0 12.0234L0 19.9749L7.16742 15.9991Z" fill="#E00000" fill-opacity="1.000000" fill-rule="evenodd"/>
	<path id="多边形 3" d="M38.8326 15.9992L46 12.0234L46 19.9749L38.8326 15.9992Z" fill="#E00000" fill-opacity="1.000000" fill-rule="evenodd"/>
	<path id="矩形 3" d="M28.3078 9.9389L37.1294 14.9083L46 9.93887L28.3078 0L28.3078 9.9389Z" fill="#2A00E0" fill-opacity="1.000000" fill-rule="evenodd"/>
	<path id="矩形 5" d="M28.308 22.0612L37.1296 17.0918L46.0001 22.0612L28.308 32.0001L28.308 22.0612Z" fill="#2A00E0" fill-opacity="1.000000" fill-rule="evenodd"/>
</svg>
