<svg xmlns="http://www.w3.org/2000/svg" enable-background="new 0 0 3000 3000" viewBox="0 0 3000 3000" id="tourist-welcome"><path fill="#e4e5f4" d="M2020.38 527.26c-342.12 0-619.28 277.45-619.28 619.57 0 342.12 277.16 619.57 619.28 619.57 342.4 0 619.57-277.45 619.57-619.57 0-342.12-277.17-619.57-619.57-619.57zm0 1051.13c-238.14 0-431.28-193.42-431.28-431.56 0-238.42 193.13-431.56 431.28-431.56 238.42 0 431.56 193.13 431.56 431.56 0 238.14-193.13 431.56-431.56 431.56z"></path><path fill="#797dff" d="M1252.23 528.69c19.73-12.96 36.71-10.78 49.26-6.72-2.53 1.75-5.05 3.52-7.56 5.28.75 2.12 1.49 4.23 2.23 6.35.03-.03-21.43-6.44-32.15-.43-.43-1.53-.87-3.07-1.31-4.6.01.01-4.23-1.54-10.47.12z"></path><path fill="#b8bdf4" d="M1493.92 482.83c-.02-.02 15.37-7.54 16.74-10.86.82 1.03 1.63 2.06 2.44 3.08 1.07.32 2.14.65 3.2.97 0 0-8.28 7.81-16.56 12.09-.49-1.06-.99-2.11-1.48-3.17-1.45-.7-2.89-1.4-4.34-2.11zM1354.23 481.85s-9.07-2.49-15.77-9.12c1.39-.8 2.79-1.59 4.19-2.38.22-1.37.43-2.75.65-4.12.01-.01 13.28 6.7 18.3 7.36-.33 1.73-.65 3.46-.98 5.19-2.14 1.02-4.27 2.04-6.39 3.07z"></path><path fill="#797dff" d="M1252.43 453.3s5.05 5.43 12.63 8.56l.63-3.33c.95-.16 1.89-.32 2.84-.47 0 0-6.48-2.09-10.06-5.79-.4.57-.8 1.13-1.2 1.7-1.61-.23-3.22-.45-4.84-.67z"></path><path fill="#b8bdf4" d="M1405.88 584.72c.06-.03-18.1-18.33-21.16-20.25 2.03.31 4.05.62 6.08.94.04-1.62.08-3.24.11-4.86.07-.04 20.63 17.41 23.06 19.07-1.69.35-3.37.7-5.05 1.06a1066.4 1066.4 0 0 0-3.04 4.04z"></path><path fill="#eff0f9" d="M2210.72 943.31c.09-.76.64-1.42 1.43-1.62 1.01-.24 2.02.38 2.27 1.39.13.55 14.75 55.65 119.41 45.13 37.35-3.75 68.14-12.4 95.3-20.02 50.22-14.1 83.41-23.41 105.31 16.31.5.91.18 2.06-.74 2.56s-2.05.17-2.56-.74c-20.47-37.12-50.78-28.61-101-14.51-25.96 7.29-58.27 16.35-95.94 20.14-108.15 10.87-123.3-47.41-123.45-48-.04-.21-.05-.43-.03-.64z"></path><path fill="#e4e5f4" d="M610.92 2352.19s-9.31-64.24-96.77-46.73c0 0 27.84 81.32 96.77 46.73z"></path><path fill="#b8bdf4" d="m518.08 2308.22 22.95 13.17c7.66 4.35 15.33 8.68 23.09 12.81 3.87 2.09 7.76 4.13 11.7 6.09 3.92 1.99 7.88 3.88 11.88 5.68 4.01 1.77 8.06 3.47 12.21 4.87 4.13 1.42 8.4 2.56 12.83 2.58-2.19.25-4.45.25-6.64-.1-2.21-.27-4.39-.75-6.55-1.28-4.3-1.13-8.5-2.6-12.62-4.23-8.25-3.27-16.2-7.21-24.01-11.36-7.78-4.2-15.43-8.65-22.9-13.36-7.5-4.68-14.83-9.63-21.94-14.87z" opacity=".52"></path><path fill="#21267f" d="M2294.44 977.65s21.13-16.75 9.15-48.69c-11.98-31.94-17.87-26.3-2.33-64.68 15.54-38.37-54.47-95.37-93.51-82.5 0 0-42.67-27.76-79.51 10.44-58.23 60.37 15.12 127.8-3.22 156.98-18.34 29.18-21.4 6.21-42.18 23.3s-9.78 79.37 70.51 65.68 36.87-12.16 94.47-1.13c57.59 11.03 46.62-59.4 46.62-59.4z"></path><path fill="#21267f" d="M2282.98 994.98c-12.51-3.31-26.8-7.52-30.95-21.37-1.08-3.61-1.54-7.74-1.37-11.5.16-3.55 1.88-6.81 2.03-10.34.2-4.77-4.12-8.96-6.87-12.44-2.4-3.04-4.47-6.14-6.18-9.62-5.79-11.76-7.26-24.37-8.35-37.09-2.39 4.61-5.44 8.9-9.15 12.72-22.62 23.36-66.8 30.89-97.08 15.58 3.38 11.34 4.51 21.01-.06 28.3-18.34 29.18-21.4 6.21-42.17 23.3-20.78 17.09-9.78 79.37 70.51 65.68 80.29-13.69 36.87-12.16 94.47-1.13 37.25 7.13 45.81-19.8 47.21-39.72-4.08-.63-8.13-1.34-12.04-2.37z" opacity=".5"></path><path fill="#eff0f9" d="M1457.82 2440.9c0 9.42-60.9 17.06-136.04 17.06-75.13 0-136.03-7.64-136.03-17.06 0-9.42 60.9-17.06 136.03-17.06s136.04 7.63 136.04 17.06zM691.25 2606.65c-24.39-5.16 154.48-27.4 306.42-15.11 107.01 8.65 173.21 18.05 173.21 18.05s-175.66 21.75-240.73 20.81c-65.07-.95-91.47 7.43-238.9-23.75zM1870.55 2587.23c18.05-6.15-117.07 12.64-231.06-2.53-112.56-14.98-129.16 25.13-129.16 25.13s133.17 14.52 182.01 10.91c48.84-3.61 69.13 3.66 178.21-33.51z"></path><path fill="#e4e5f4" d="M252.84 2358.1c-10.79-5.29 317.23 14.42 461.42-26.44s610.42-2.4 927.65 0 254.54-21.61 486.3-17.81c405.65 6.65 489.64 6.65 619.19 30.83 0 0-377.31 63.04-627.25 19s-213.89 4.03-531.12 23.25c-317.23 19.23-199.47-14.42-468.63 0-269.15 14.43-749.8 28.85-867.56-28.83z"></path><path fill="#e5c9c3" d="M1032.23 2054.45c-16.08 24.12-169.53 543.94-169.53 543.94h127.7s197.96-484.97 196.29-519.82c-1.67-34.84-154.46-24.12-154.46-24.12z"></path><path fill="#e5c9c3" d="M1025.66 2171.71c19.27 9.39 40.58 13.37 61.78 15.34 14.86 1.38 33.21 2.15 41.57 16.77 7.96 13.91 3.02 32.91-5.67 45.23-8.88 12.59-21.72 21.81-30.14 34.76-7.13 10.97-8.21 22.49-6.67 35.07 1.15 9.39 2.67 18.79 4.39 28.16 48.68-124.18 96.58-251.25 95.75-268.47-1.67-34.85-154.45-24.12-154.45-24.12-4.09 6.13-17.05 44.3-34.1 97.78 8.07 7.83 17.25 14.46 27.54 19.48z" opacity=".65"></path><path fill="#e5c9c3" d="M987.33 2301.72c-11.15 8.46 41.55-125.98 50.93-136.7 9.38-10.72-31.49 121.96-50.93 136.7zM1015.92 2404.25c.67-2.68 28.81-109.23 50.93-130 22.11-20.78-50.93 130-50.93 130zM929.94 2495.05s27.47-93.82 40.88-124.64c0 0-21.45 99.18-40.88 124.64zM962.54 2570.44s48.55-109.23 69.84-150.78c0 0-46.39 136.04-69.84 150.78z" opacity=".65"></path><path fill="#e5c9c3" d="M1243.81 1913.57c-7.27 28.07 17.37 534.29 17.37 534.29l121.75-6.78s27.71-523.08 14.69-555.45c-13.02-32.36-153.81 27.94-153.81 27.94z"></path><path fill="#e5c9c3" d="M1277.53 2179.16c6.27 3.2 13.03 6.89 20.07 7.91 6.19.9 12.47 1.06 18.67 1.93 10.4 1.46 19.12 6 25.43 14.63 6.02 8.23 8.22 18.22 8.88 28.23.69 10.44-.07 20.99 1.31 31.38 1.52 11.49 7.22 20.43 15.53 28.26 7.11 6.7 15.05 12.56 21.9 19.54 7.28-157.18 17.1-403.52 8.3-425.41-13.02-32.37-153.81 27.94-153.81 27.94-3.36 12.99.11 128.41 4.81 248.65 9.47 5.94 18.96 11.86 28.91 16.94z" opacity=".65"></path><path fill="#e5c9c3" d="M1282.61 2161.88c-7.75 11.65-2.13-132.64 3.21-145.85 5.34-13.21 10.3 125.54-3.21 145.85zM1343.28 2249.33c-.25-2.75-8.66-112.63 5.41-139.52 14.06-26.88-5.41 139.52-5.41 139.52zM1291.89 2363.33s-4.86-97.64-2.32-131.15c0 0 12.32 100.72 2.32 131.15zM1347.44 2423.84s9.98-119.12 16.45-165.35c0-.01.86 143.72-16.45 165.35z" opacity=".65"></path><path fill="#e5c9c3" d="M1583.61 2054.45c16.08 24.12 169.52 543.94 169.52 543.94h-127.69s-197.96-484.97-196.29-519.82c1.67-34.84 154.46-24.12 154.46-24.12z"></path><path fill="#e5c9c3" d="M1590.18 2171.71c-19.27 9.39-40.58 13.37-61.78 15.34-14.86 1.38-33.21 2.15-41.57 16.77-7.96 13.91-3.02 32.91 5.67 45.23 8.87 12.59 21.72 21.81 30.14 34.76 7.13 10.97 8.21 22.49 6.67 35.07-1.15 9.39-2.67 18.79-4.39 28.16-48.68-124.18-96.58-251.25-95.75-268.47 1.67-34.85 154.45-24.12 154.45-24.12 4.09 6.13 17.05 44.3 34.1 97.78-8.07 7.83-17.25 14.46-27.54 19.48z" opacity=".65"></path><path fill="#e5c9c3" d="M1628.51 2301.72c11.15 8.46-41.55-125.98-50.93-136.7-9.38-10.72 31.49 121.96 50.93 136.7zM1599.93 2404.25c-.67-2.68-28.82-109.23-50.93-130-22.12-20.78 50.93 130 50.93 130zM1685.9 2495.05s-27.48-93.82-40.88-124.64c0 0 21.45 99.18 40.88 124.64zM1653.3 2570.44s-48.55-109.23-69.84-150.78c0 0 46.39 136.04 69.84 150.78z" opacity=".65"></path><path fill="#efd9d3" d="M1986.14 2569.64s-3.9-58.83 4.59-62.19c8.49-3.35 28.7-3.57 32.84.67 4.14 4.24-8.68 65.73-16.79 73.18s-17.55 4.04-20.64-11.66z"></path><path fill="#21267f" d="M1924.2 2603.93s-1.48 8.44 5.6 13.12c17.58 11.62 80.75 8.73 84.46 3.37 3.71-5.36 3.49-12.73 3.49-12.73l-93.55-3.76z"></path><path fill="#3339ae" d="M1992.25 2549.56s15.96 2.26 23.54.45c6.88-1.64 5.75 57.95-.59 64.35-6.34 6.4-45.09-3.9-45.09-3.9s6.78-13.49 11.73-29.51c4.95-16-4.79-30.07 10.41-31.39z"></path><path fill="#21267f" d="M1973.96 2570.53s-10.44-27.83 1.06-28.8c11.5-.98 14.52 1.3 20.36 5.84s-7 23.51-8.5 26.42c-1.49 2.91-12.92-3.46-12.92-3.46z"></path><path fill="#21267f" d="M1955.37 2585.88s13.95 2.76 18.36 10.89c4.4 8.14 21.64-14.51 18.46-23.48-3.17-8.96-21.46-5.09-21.46-5.09s1.43 16.88-15.36 17.68z"></path><path fill="#606ae8" d="M1925.12 2609.38c9.28 9.49 44.3 15.29 52.53 7.57 8.23-7.73 3.55-40.07-29.32-36.6-13.54 1.43-29.71 22.39-23.21 29.03z"></path><path fill="#fff" d="M1954.06 2582.68c-4.42-.23-8.06.42-11.01 1.68.85 1.68 1.78 3.3 2.8 4.87 3.46-1.58 8.01-2.63 13.29-1.39 12.14 2.86 12.42 3.34 12.42 3.34s-7.09-7.95-17.5-8.5zM1938.59 2588.54c-.99 1.28-.6 3.14.85 3.86.92.46 2.01.32 2.78-.36.64-.56 1.52-1.27 2.62-2a58.114 58.114 0 0 1-2.79-4.83c-1.34.97-2.5 2.09-3.46 3.33z" opacity=".2"></path><path fill="#21267f" d="m2178.12 1538.12-201.1 5.88s23.99 751.46 4.18 990.7l42.14 2.9c0 .01 264.16-918.63 154.78-999.48z"></path><path fill="#21267f" d="M2008.64 1639.54c13.37 3.46 27.11.65 40.29 5.61 8.6 3.24 16.35 8.44 22.55 15.22 23.06 25.22 22.91 65.43 19.08 97.24-2.45 20.34-9.27 40.95-5.82 61.56 3.83 22.89 20.19 40.81 32.93 59.28 10.28 14.89 17.09 30.92 18.82 49.01 1.31 13.64 1.21 27.37 2.25 41.03 1 13.22 2.34 27.62 8.81 39.47 1.57 2.87 3.43 5.19 5.53 7.02 46.23-222.33 75.69-439.43 25.03-476.87l-201.1 5.88s.92 28.69 2.24 76.51c8.23 8.81 17.7 16.01 29.39 19.04z" opacity=".25"></path><path fill="#efd9d3" d="M2351.51 2559.01s-18.75-57.04-10.89-61.69c7.86-4.65 27.01-7.77 31.76-4.23 4.76 3.54 8.18 65.54 1.35 74.18-6.82 8.64-16.68 6.75-22.22-8.26z"></path><path fill="#21267f" d="M2299.22 2607.12s.5 8.56 8.47 11.48c19.78 7.25 80.59-10.13 82.96-16.2s.46-13.2.46-13.2l-91.89 17.92z"></path><path fill="#3339ae" d="M2352.9 2538.53s16.05-1.48 23.01-4.99c6.32-3.19 18.96 55.06 14.27 62.75-4.69 7.69-44.77 6.61-44.77 6.61s3.49-14.69 4.61-31.42c1.12-16.73-11.61-28.16 2.88-32.95z"></path><path fill="#21267f" d="M2339.94 2563.15s-16.57-24.67-5.61-28.27 14.43-2.08 21.16.99c6.73 3.07-1.39 24.49-2.17 27.67-.79 3.17-13.38-.39-13.38-.39z"></path><path fill="#21267f" d="M2325.39 2582.37s14.21-.53 20.37 6.37 17.71-19.11 12.55-27.1c-5.16-7.99-22.06-.01-22.06-.01s5.3 16.09-10.86 20.74z"></path><path fill="#606ae8" d="M2301.38 2612.22c11.22 7.09 46.64 4.66 52.86-4.75 6.23-9.42-5.79-39.81-36.97-28.85-12.85 4.5-23.75 28.63-15.89 33.6z"></path><path fill="#fff" d="M2323.38 2579.56c-4.36.8-7.74 2.27-10.32 4.17 1.21 1.44 2.5 2.8 3.85 4.09 3-2.34 7.19-4.41 12.61-4.42 12.47-.02 12.85.38 12.85.38s-8.74-6.09-18.99-4.22zM2309.68 2588.83c-.66 1.48.14 3.19 1.72 3.56 1 .23 2.03-.15 2.62-.99.49-.69 1.19-1.59 2.09-2.55a58.731 58.731 0 0 1-3.83-4.06 16.44 16.44 0 0 0-2.6 4.04z" opacity=".2"></path><path fill="#21267f" d="m2300.48 1511.49-194.32 52.11s192.35 724.12 228.25 961.47l45.66-4.65c0-.01 45.5-955.49-79.59-1008.93z"></path><path fill="#3339ae" d="M2210.75 1660.42s80.99 46.46 99.92 70.59c18.92 24.12-102.6-41.11-99.92-70.59z"></path><path fill="#21267f" d="M2160.71 1733.05c7.82-18.31 20.87-31.7 40.23-37.23 15.66-4.47 32.64-4.9 48.75-3.22 17.18 1.79 34.35 6.26 49.61 14.48 14.39 7.76 25.88 19.09 31.86 34.46 7.34 18.85 5.1 38.02 2.67 57.55-1.14 9.14-2.06 18.42-.71 27.59 1.58 10.73 6.34 20.37 13.22 28.69 9.91 11.99 22.59 22.25 36 30.79-9.39-189.64-32.14-353.44-81.86-374.69l-194.32 52.11s20.21 76.08 48.73 186.94c1.54-5.95 3.41-11.81 5.82-17.47z" opacity=".1"></path><path fill="#eff0f9" d="M623.44 817.51c316.35-56.1 1259.18-68.52 1303.27 10.2 111.39 198.89-15.79 1216.22-15.54 1258.33 0 0-1168.59 49.57-1200.68 22.89-32.08-26.69-174.17-1184.33-87.05-1291.42z"></path><path fill="#e4e5f4" d="M653.55 1642.73c50.62-12.38 117.79-110.49 43.5-411.69-3.47-14.09 10.9-26.74 20.75-37.47 10.96-11.94 22.62-23.33 33.19-35.59 8.47-9.83 16.22-20.49 19.85-32.88 8.88-30.33-9.08-62.21-26.07-86.79-17.84-25.8-39.74-50.5-49.57-80.42-8.59-26.14-5.75-54.56 12.01-76.63 16.98-21.1 42.55-34.69 67.63-45.33 31.46-13.35 64.89-22.69 98.02-31.5 29.53-7.85 59.47-14.79 89.68-20.51-136.9 7.84-258.38 19.3-339.08 33.6-50.91 62.57-23.56 483.77 14.37 828.49 5.24-1.02 10.51-2 15.72-3.28zM1949.11 890.62c-2.09 6.02-4.89 11.76-9.13 16.91-.46.56-1 .88-1.57 1.1-.31 7.27-.88 14.52-1.91 21.73-3.83 26.74-13.87 52.17-32.14 73.05-20.9 23.89-48.8 38-74.81 55.94-23.33 16.09-42.08 34.72-51.67 61.02-12.64 34.69-15.95 72.68-7.38 108.56 8.88 37.22 29.46 70.9 48.91 103.86 16.88 28.61 44.83 49.23 63.39 76.68 17.16 25.38 19.93 53.35 9.69 81.74-8.33 23.08-24.74 42.27-44.26 57.75-40.87 32.42-93.28 49.46-132.15 84.32-21 18.84-34.77 43.05-31.8 71.19 3.27 31.01 20.75 59.21 34.88 86.69 14.21 27.63 28.11 57.41 26.51 88.87-1.22 23.86-11.62 46.03-28.63 63.45-15.9 16.29-36.08 28.04-56.08 39.18-19.04 10.61-39.28 20.65-55.1 35.55-25.33 23.85-21.94 52.69-9.66 80.08 179.73-6.52 314.98-12.26 314.98-12.26-.24-38.72 107.29-902.2 37.93-1195.41z"></path><path fill="#b8bdf4" d="M929.44 1530.33c-2.28-2.2-3.41-4.92-3.41-8.16 0-48.44-1.4-89.34-4.2-122.71-8.38-.93-14.34-1.4-17.83-1.4-14.34 0-24.65.81-30.94 2.43 0 12.99 1.58 32.57 4.73 58.75 2.79 27.81 4.19 47.52 4.19 59.1 0 2.31-1.05 4.47-3.14 6.43-2.1 1.98-4.73 2.95-7.87 2.95-4.55 0-8.75-5.32-12.59-15.99-5.59-15.75-10.15-48.79-13.64-99.07-2.45-34.07-3.67-70.68-3.67-109.85-.35-7.17-.53-17.38-.53-30.59 0-4.17 2.96-6.26 8.91-6.26 3.49 0 7.09.58 10.75 1.73 3.68 1.16 6.37 2.44 8.13 3.82-1.4 7.42-2.09 16.11-2.09 26.08 0 9.73.69 21.54 2.09 35.45 1.05 16 1.58 28.04 1.58 36.16v6.25c-.35 1.86-.53 4.06-.53 6.6 0 2.31.35 5.34 1.05 9.03 2.1 0 5.59-.12 10.48-.35 4.89-.22 9.78-.57 14.69-1.04 11.53-.7 20.09-1.05 25.68-1.05 0-20.16-.35-38.81-1.04-55.97l-1.05-58.05v-9.38c4.54 0 8.56.52 12.06 1.57 3.49 1.03 6.1 2.37 7.86 3.99 3.15 2.56 5.07 6.95 5.77 13.22v7.99c0 19.94 1.75 58.05 5.26 114.37 3.14 50.98 4.72 89.22 4.72 114.71 0 3.24-1.5 6.14-4.46 8.7-2.98 2.55-6.55 3.81-10.75 3.81-4.54.03-7.95-1.07-10.21-3.27zM1085.95 1528.77c-5.96-1.16-8.92-4.41-8.92-9.73v-201.97c0-3.94-1.05-9.85-3.14-17.73-2.45-7.17-3.68-13.09-3.68-17.73v-1.03c5.94-6.49 10.31-10.66 13.11-12.52 4.89 0 11.36-.45 19.4-1.38 7.34-.93 13.8-1.4 19.4-1.4 5.58 0 11.01 1.1 16.25 3.3 5.24 2.21 7.86 4.81 7.86 7.82 0 6.95-8.04 10.43-24.11 10.43h-7.34c-2.1-.23-4.55-.35-7.34-.35-3.14 0-5.07.12-5.77.35 0 7.88.7 17.38 2.1 28.5l1.04 9.74 1.05 19.11c0 4.41-.53 11.13-1.56 20.16l-1.05 19.46 7.33-1.03c6.99-1.4 12.76-2.09 17.32-2.09 3.84 0 7.33.99 10.48 2.95 3.14 1.98 4.72 4.23 4.72 6.78 0 2.79-1.31 5.28-3.93 7.48-2.61 2.21-5.86 3.3-9.7 3.3l-6.29-.35h-6.8c-5.26 0-8.92.81-11.02 2.44v107.41l29.36-1.04c19.93 0 29.89 3.01 29.89 9.03v1.38c-2.09 2.79-5.94 5.05-11.53 6.78-5.59 1.74-11.01 2.84-16.25 3.3l-17.3.35h-16.25c-6.67.01-12.44-.57-17.33-1.72zM1283.35 1528.94c-3.67-2.2-5.5-4.81-5.5-7.82 0-2.08.69-4.63 2.09-7.65 1.05-3.24 1.58-5.67 1.58-7.29 0-20.63-1.75-60.26-5.24-118.89-3.5-50.05-5.24-89.56-5.24-118.53 0-2.08 1.21-3.77 3.66-5.03 2.44-1.28 5.42-1.92 8.92-1.92 4.19 0 7.86.99 11.01 2.95 3.14 1.98 4.72 4.35 4.72 7.13 0 13.91 1.05 34.76 3.15 62.57 1.74 30.82 2.61 51.68 2.61 62.56l.53 4.17v8.34c1.05 20.16 1.58 50.29 1.58 90.37v9.05h40.37c7.34 3.48 11.01 6.95 11.01 10.43 0 2.55-1.31 4.81-3.93 6.78-2.61 1.97-5.69 2.95-9.18 2.95-1.05 0-2.96-.23-5.77-.7l-2.09-.35c-2.1.23-5.43.35-9.97.35h-8.91c-2.45-.23-5.24-.35-8.4-.35-3.49 2.78-8.38 4.17-14.67 4.17-4.56.01-8.65-1.09-12.33-3.29zM1466.88 1528.94c-3.66-2.2-5.5-4.81-5.5-7.82 0-2.08.69-4.63 2.09-7.65 1.05-3.24 1.58-5.67 1.58-7.29 0-20.63-1.75-60.26-5.24-118.89-3.5-50.05-5.24-89.56-5.24-118.53 0-2.08 1.21-3.77 3.66-5.03 2.44-1.28 5.42-1.92 8.92-1.92 4.19 0 7.86.99 11.01 2.95 3.14 1.98 4.72 4.35 4.72 7.13 0 13.91 1.05 34.76 3.15 62.57 1.74 30.82 2.61 51.68 2.61 62.56l.53 4.17v8.34c1.05 20.16 1.58 50.29 1.58 90.37v9.05h40.37c7.34 3.48 11.01 6.95 11.01 10.43 0 2.55-1.31 4.81-3.93 6.78-2.61 1.97-5.69 2.95-9.18 2.95-1.05 0-2.96-.23-5.77-.7l-2.09-.35c-2.1.23-5.43.35-9.97.35h-8.91c-2.45-.23-5.24-.35-8.4-.35-3.49 2.78-8.38 4.17-14.67 4.17-4.56.01-8.66-1.09-12.33-3.29zM1681.6 1531.89c-7.69-4.17-14.34-9.85-19.93-17.03-10.15-12.51-17.65-29.66-22.54-51.45-3.5-15.06-6.13-32.44-7.87-52.15l-.53-18.42v-18.78c-.35-6.02-.53-13.32-.53-21.89 0-13.91.88-26.2 2.63-36.86 1.39-11.11 4.89-22.13 10.48-33.02 5.59-9.5 13.64-16.22 24.12-20.16 6.29-1.85 12.59-2.78 18.88-2.78 18.51 0 33.2 4.86 44.04 14.6 11.88 10.89 19.75 23.06 23.6 36.5 5.59 16.22 8.73 31.75 9.45 46.58 1.39 16.46 2.09 31.98 2.09 46.59v19.81c0 3.94-.88 11.36-2.61 22.24-1.4 8.58-2.1 15.88-2.1 21.9v1.38c-2.09 6.5-3.14 14.14-3.14 22.95 0 6.49-2.1 13.21-6.29 20.16-4.19 6.95-10.15 12.86-17.83 17.73-7.69 5.56-16.44 8.34-26.22 8.34-9.45.02-18.02-2.06-25.7-6.24zm44.56-25.71c4.19-7.65 7.25-16.97 9.18-27.99 1.91-11.01 3.58-23.46 4.99-37.37.69-6.02 1.04-13.79 1.04-23.3l-.51-31.97c-.71-12.51-2.8-28.16-6.29-46.93-2.8-16-8.04-30.12-15.74-42.41-3.49-5.79-7.86-10.31-13.11-13.56-5.24-3.24-10.83-4.87-16.78-4.87-8.73 0-15.2 4.52-19.39 13.56-5.26 9.51-8.74 19.94-10.5 31.29-2.09 12.29-3.33 23.99-3.66 35.11l-.53 11.48c-.35 3.24-.53 7.64-.53 13.21v1.38c0 15.53 2.44 34.65 7.34 57.37 5.59 30.82 13.8 52.72 24.65 65.69 6.98 8.12 14.32 12.17 22.02 12.17 6.99 0 12.92-4.29 17.82-12.86z"></path><path fill="#eff0f9" d="M611.39 2348.48c-.54-1.33-54.3-133.06-58.25-173.78l-1.79.17c3.97 40.97 57.83 172.95 58.38 174.28l1.66-.67z"></path><path fill="#eff0f9" d="M553.08 2179s8.76-42.28-5.45-43.89c-14.22-1.62 5.45 43.89 5.45 43.89zM556.95 2193.41s-25.49-26.94-26.99-18.98c-1.49 7.97 26.99 18.98 26.99 18.98zM563.44 2217.69s-21.05-25.46-27.84-19.66c-6.8 5.79 27.84 19.66 27.84 19.66zM571.53 2246.08s-26.25-30.37-33.65-22.95c-7.4 7.43 33.65 22.95 33.65 22.95zM579.54 2273.71s-36.49-38.64-42.88-28.99c-6.38 9.66 42.88 28.99 42.88 28.99zM593.19 2306.59s-47.36-41.78-51.59-33.91c-4.24 7.86 51.59 33.91 51.59 33.91zM605.47 2337.66s-49.26-37.67-56.08-28.36c-6.81 9.31 56.08 28.36 56.08 28.36zM606.07 2336.04s3.74-49.16 12.01-41.07c8.28 8.09-12.01 41.07-12.01 41.07zM593.19 2306.59s4.84-46.16 15.1-41.4c10.26 4.76-15.1 41.4-15.1 41.4zM581.78 2272.69s6.17-37.33 14.72-33.95c8.55 3.39-14.72 33.95-14.72 33.95zM571.53 2246.08s11.08-42.53 18.5-35.13c7.42 7.41-18.5 35.13-18.5 35.13zM563.44 2217.69s9.08-35.69 15.9-30.17c6.83 5.51-15.9 30.17-15.9 30.17zM557.45 2198.04s9.67-33.8 17.87-29.99c8.21 3.81-17.87 29.99-17.87 29.99zM297.19 2023.52c-.26-.72-.05-1.56.58-2.08.8-.66 1.98-.54 2.65.26.36.44 37.6 43.6 127.12-11.64 31.95-19.71 55.86-40.95 76.95-59.68 39-34.64 64.77-57.53 101.84-31.39.84.6 1.06 1.77.45 2.62-.6.85-1.77 1.05-2.62.45-34.64-24.43-58.18-3.52-97.18 31.12-20.16 17.9-45.25 40.19-77.47 60.07-92.5 57.08-131.62 11.29-132.01 10.82-.13-.16-.24-.35-.31-.55zM634 2324.49s-32.24-93.33 8.62-112.6c40.87-19.27 23.95 81.01-8.62 112.6zM2577.9 2290.17s-32.24-93.33 8.62-112.6c40.87-19.27 23.95 81-8.62 112.6z"></path><path fill="#eff0f9" d="M619.6 2355.11s29.21-40.63-28.69-77.71c0 0-28.07 60.02 28.69 77.71z"></path><path fill="#b8bdf4" d="m591.61 2281.03 5.69 19.59c1.92 6.51 3.86 13.02 5.96 19.46 1.03 3.23 2.1 6.45 3.23 9.64 1.11 3.2 2.29 6.37 3.55 9.51 1.28 3.13 2.61 6.24 4.17 9.23 1.54 3 3.29 5.92 5.74 8.3-1.35-1.03-2.6-2.24-3.63-3.61-1.08-1.33-2.04-2.76-2.95-4.21-1.78-2.93-3.33-5.99-4.74-9.1-2.83-6.23-5.13-12.67-7.24-19.15-2.07-6.5-3.93-13.05-5.56-19.67-1.66-6.61-3.08-13.27-4.22-19.99z" opacity=".52"></path><path fill="#eff0f9" d="M2559.16 2323.94s23.11-127.66-153.76-149.97c0 0 1.18 171.8 153.76 149.97z"></path><path fill="#b8bdf4" d="m2411.1 2181.7 35.14 39.52c11.76 13.1 23.54 26.17 35.63 38.93 6.01 6.41 12.09 12.76 18.3 18.96 6.16 6.25 12.47 12.36 18.91 18.31 6.47 5.91 13.06 11.69 20.04 16.97 6.94 5.31 14.3 10.19 22.68 13.04-4.31-.92-8.58-2.34-12.52-4.41-4.01-1.92-7.84-4.2-11.59-6.58-7.44-4.87-14.46-10.32-21.24-16.03-13.56-11.44-26.12-23.93-38.29-36.75a785.576 785.576 0 0 1-34.93-39.85c-11.23-13.64-21.98-27.66-32.13-42.11z" opacity=".52"></path><path fill="#e4e5f4" d="M2472.33 1809.34H2447v-22.55h-22.55v-25.33H2447v-22.55h25.33v22.55h22.55v25.33h-22.55v22.55zm-22.86-2.46h20.39v-22.55h22.55v-20.39h-22.55v-22.55h-20.39v22.55h-22.55v20.39h22.55v22.55zM506.34 1772.77l-17.91-17.91 15.95-15.95-15.95-15.95 17.91-17.91 15.95 15.95 15.95-15.95 17.91 17.91-15.95 15.95 15.95 15.95-17.91 17.91-15.95-15.95-15.95 15.95zm-14.42-17.91 14.42 14.42 15.95-15.95 15.95 15.95 14.42-14.42-15.95-15.95 15.95-15.95-14.42-14.42-15.95 15.95-15.95-15.95-14.42 14.42 15.95 15.95-15.95 15.95z"></path><path fill="#eff0f9" d="M2328.35 1581.58c-30.29 30.29-296.42 33.1-346.46 7.19-50.04-25.91-.2-590.23 214.44-607.58 176.91-14.29 132.02 600.39 132.02 600.39z"></path><path fill="#21267f" d="M2092.72 1087.45c8.04 6.7 52.99 26.26 83.76 16.75 30.77-9.51 53.61-8.83 65.67-7.1 12.06 1.74 5.36 78.13 5.36 78.13s-53.61 18.09-97.17 0-81.76-15.41-82.43-17.42c-.65-2.01 24.81-70.36 24.81-70.36zM2028.64 1245.77c11.04 6.7 72.74 26.26 114.97 16.75 42.23-9.51 73.58-8.83 90.14-7.1 16.56 1.74 7.36 78.13 7.36 78.13s-73.58 18.09-133.37 0c-59.79-18.09-112.21-15.41-113.13-17.42-.92-2.01 34.03-70.36 34.03-70.36zM2029.6 1392.34c12.41 6.7 81.79 26.26 129.27 16.75 47.49-9.51 82.74-8.83 101.35-7.1 18.62 1.74 8.27 78.13 8.27 78.13s-82.74 18.09-149.96 0c-67.22-18.09-126.17-15.41-127.21-17.42-1.02-2.01 38.28-70.36 38.28-70.36z"></path><path fill="#efd9d3" d="M1945.52 900c-2.24 7.01-6.79 14.5-10.59 15.95-2.04 1.64-7.55 23.88-9.09 30.58L1892 945.1l6.2-32.33s-1.23-6.77-2.17-18.51c-.94-11.74-3.55-57.2 1.93-55.69 5.48 1.51 6.63 26.78 6.63 26.78s4.57-40.49 10.52-38.39c5.95 2.11 2.83 37.38 2.83 37.38s6.42-44.19 13.08-45.57c6.66-1.38-1.57 46.48-1.57 46.48s13.97-39.86 19.97-38.15c6 1.72-8.26 41.92-9.39 50.84-.73 5.78 3.09 9.71 7.42 5.4 4.33-4.31 16.46-4.6 18.08-.34 1.6 4.27-17.77 9.99-20.01 17z"></path><path fill="#e5c9c3" d="M1917.97 915.78c4.26-.08 8.51-.68 12.64-1.74 2.23-.57 4.45-1.32 6.45-2.46-4.83 5.13-11 8.8-18.39 8.44-4.14-.2-9.16-.88-12.55-3.47-1.27-.97-2.35-2.33-3.25-3.87.78.53 1.59 1 2.48 1.38 3.82 1.62 8.53 1.8 12.62 1.72z" opacity=".5"></path><path fill="#b8bdf4" d="m2127.33 1008.3-227.03 125.66 34.81-207.06-43.11-7.29s-113.28 196.8-79.41 314.25c33.87 117.45 216.05 11.91 216.05 11.91l98.69-237.47z"></path><path fill="#b8bdf4" d="M2053.71 1049.05c-19.44 29.31-35.25 61.05-57.34 88.56-9.15 11.4-18.93 21.63-31.67 28.98-10.58 6.1-22.57 10.59-31.24 19.49-10.16 10.44-11.12 25.14-16.13 38.15-5.25 13.63-15.26 23.26-28.66 28.97-14.84 6.33-31.33 7.55-47.29 7.34-5.81-.08-11.51-.67-17.14-1.57 51.81 75.12 204.4-13.19 204.4-13.19l98.69-237.47-73.62 40.74z" opacity=".3"></path><path fill="#b8bdf4" d="M2139.27 1000.2s11.94 57.99-32.89 141.32c-44.83 83.32-56.87 147.62-59.68 211.97-9.95 227.85-74.26 247.96-74.26 247.96s-39.5 4.97-23.48-60.31c7.5-30.55-8.92-428.64 190.31-540.94zM2237.48 990.9c-18.96-.48-65 199.54-15.04 319.26 49.96 119.73-52.17 232.28-15.13 262.02 37.04 29.74 91.52 65.26 160.51 43.69 68.99-21.57-16.53-77.86-26.17-210.1s-8.21-213.55-8.21-213.55 2.73-198.82-95.96-201.32z"></path><path fill="#b8bdf4" d="M2341.65 1405.77c-6.58-90.18-8-156.64-8.24-189.81-7.27-13.25-12.92-27.47-17.61-41.66-6.62-20.04-11.47-40.83-13.81-61.86-10.5 19.52-13.87 43.37-10.38 64.97 1.93 11.96 6.77 23.28 10.39 34.79 3.41 10.84 6.23 21.88 6.69 33.28.48 11.96-1.84 23.73-6.54 34.73-2.75 6.44-6.45 12.38-9.49 18.67-2.93 6.04-5.52 12.25-7.9 18.52-9.38 24.71-15.74 50.53-28.22 74-5.63 10.59-12.85 20.06-19.69 29.88-1.71 2.45-3.44 4.95-5.12 7.51-1.41 7.3-3.07 14.42-4.88 21.37 11.55.93 23.38-2.02 34.92-2.22 12.88-.22 25.47 4.24 36.57 10.52 19.91 11.26 35.28 29.49 42.95 50.97 7.73 21.64 10.77 45.95 5.6 68.53-4.42 19.3-15.54 34.54-32.81 43.92 16.78 1.43 34.69-.06 53.75-6.02 68.98-21.56-16.54-77.85-26.18-210.09z" opacity=".3"></path><path fill="#eff0f9" d="M2148.7 998.46c2.53-15.32 20.71-29.11 40.61-30.82 19.9-1.7 33.99 9.33 31.47 24.65s-20.71 29.11-40.61 30.82c-19.91 1.71-34-9.33-31.47-24.65z"></path><path fill="#efd9d3" d="m2163.09 948.05-4.45 53.68s36.35 11.49 51.7-11.8l-10.16-43.99-37.09 2.11z"></path><path fill="#e5c9c3" d="M2201.01 949.52c-2.79 15.2-38.06 23.89-35.32 37.5 1.39 6.89 8.33 11.04 14.76 13.13 4.26 1.39 8.76 2.04 13.29 2.18-16.28 5.34-35.1-.61-35.1-.61l4.45-53.68 37.92 1.48z" opacity=".5"></path><path fill="#efd9d3" d="M2236.43 874.67s1.76 83.92-67.87 82.76c-69.63-1.16-29.98-108.24-29.98-108.24s56.1-40.5 97.85 25.48z"></path><path fill="#21267f" d="M2133.14 848.84s18.06 8.16 23.81 6.34c5.75-1.81 10.94-8.55 10.94-8.55v13.08s55.99 27.47 74.11 14.64c18.13-12.82-72.04-100.73-108.86-25.51z"></path><path fill="#efd9d3" d="M2227.43 887.16s9.97-7.58 15.59-2c5.62 5.58-7.64 36.74-17.75 27.7-10.1-9.05 2.16-25.7 2.16-25.7z"></path><path fill="#21267f" d="M2229.8 892.1c.36.06.73-.09.94-.41.03-.04 2.64-3.92 5.68-4.1 1.32-.07 2.53.56 3.71 1.94a.937.937 0 1 0 1.43-1.21c-1.57-1.84-3.33-2.72-5.26-2.59-3.97.24-7 4.74-7.13 4.93a.936.936 0 0 0 .26 1.3c.12.07.24.12.37.14zM2206.16 888.55s-16.89-1.41-18.54-3.13c-1.65-1.72 3.76-5.06 11.16-2.93s9.32 6.07 7.38 6.06zM2190.55 895.39c-.46 2.7 1.03 5.19 3.31 5.57 2.28.38 4.5-1.48 4.95-4.18.46-2.7-1.03-5.2-3.31-5.59-.64-.11-1.27-.04-1.87.19.77.38 1.22 1.35 1.05 2.38-.21 1.22-1.22 2.07-2.25 1.9-.76-.13-1.33-.78-1.49-1.6-.18.43-.31.86-.39 1.33zM2162.26 881.14s-16.89-1.41-18.54-3.13c-1.65-1.72 3.76-5.06 11.16-2.93 7.4 2.13 9.32 6.07 7.38 6.06zM2146.65 887.98c-.46 2.7 1.03 5.19 3.31 5.57 2.28.38 4.5-1.48 4.95-4.18.46-2.7-1.03-5.2-3.31-5.59-.64-.11-1.27-.04-1.87.19.77.38 1.22 1.35 1.05 2.38-.2 1.22-1.22 2.07-2.25 1.9-.76-.13-1.33-.78-1.49-1.6-.18.43-.31.86-.39 1.33zM2169.01 906.08c.31.05.65-.06.87-.32.33-.39.28-.98-.11-1.31-1.85-1.55-2.07-2.33-2.04-2.66.06-.67 1.37-1.43 2.77-2.22.85-.48 1.8-1.03 2.73-1.69 4.39-3.14 5.1-13.45 5.13-13.88a.93.93 0 0 0-.87-.99.943.943 0 0 0-.99.87c-.18 2.74-1.3 10.31-4.35 12.49-.85.61-1.73 1.11-2.57 1.59-1.9 1.09-3.55 2.03-3.7 3.67-.11 1.27.72 2.58 2.7 4.25.12.1.27.17.43.2zM2149.86 920.12c-.32.03-.64.15-.92.36-.77.6-.9 1.7-.31 2.47.16.2 3.96 4.99 10.86 5.6 5.89.53 12.09-2.1 18.44-7.81a1.756 1.756 0 1 0-2.35-2.61c-5.6 5.03-10.91 7.36-15.78 6.92-5.4-.48-8.37-4.22-8.4-4.26-.37-.49-.96-.72-1.54-.67z"></path><path fill="#e5c9c3" d="M2187.33 915.72c0 4.1 4.84 7.42 10.8 7.42 5.97 0 10.8-3.32 10.8-7.42s-4.84-7.42-10.8-7.42c-5.96 0-10.8 3.32-10.8 7.42zM2131.34 902.61c0 3.28 3.87 5.94 8.64 5.94 4.77 0 8.64-2.66 8.64-5.94 0-3.28-3.87-5.94-8.64-5.94-4.77.01-8.64 2.66-8.64 5.94z" opacity=".5"></path><path fill="#eff0f9" d="M1332.06 369.31v200.94h7.29v-201l-7.29.06zM1380.86 684.66c0 24.93-20.22 45.15-45.15 45.15-24.95 0-45.15-20.21-45.15-45.15 0-24.94 20.2-45.15 45.15-45.15 24.93.01 45.15 20.22 45.15 45.15z"></path><path fill="#efd9d3" d="m1381.73 594.23.02-.02c.15-.22.99-1.65.69-1.96-8.5-8.49-12.35-27.4-12.35-27.4-5.24-4.91-29.83-5.06-34.35-5.06-4.51 0-29.09.16-34.33 5.06 0 0-3.85 18.91-12.35 27.4-.38.38.03 1.16.66 1.98-45.95 15.42-78.48 53.2-78.48 97.38h248.95c-.01-44.17-32.51-81.96-78.46-97.38z"></path><path fill="#e5c9c3" d="M1343.15 563.2c7.18 3.35 18.39 8.97 14.55 18.8-2.96 7.59-12.85 11.59-19.95 14.39 24.85 3.93 50.24 9.37 68.13 27.63 8.08 8.26 13.38 21.33 9.85 32.86-3.08 10.05-12.43 13.13-22.09 13.18-12.68.06-25.07-3.7-37.75-3.56-15.68.16-25.41 10.86-39.24 16.28-14.82 5.8-30.74 5.11-46.29 7.25-3.56.49-7.13 1.04-10.71 1.57h200.51c0-44.17-32.5-81.96-78.45-97.37l.02-.02c.15-.22.99-1.65.69-1.96-8.5-8.49-12.35-27.4-12.35-27.4-5.24-4.91-29.83-5.06-34.35-5.06-.21 0-.66.01-.95.01 2.86 1.05 5.69 2.15 8.38 3.4z"></path><path fill="#797dff" d="M2069.83 1313.46s-45.6.69-73.46 13.33c-27.86 12.64-75.34-1.37-75.34-1.37l-4.24 17.06s101.69 29.28 153.04-29.02z"></path><path fill="#606ae8" d="M2114.23 1348.41s6.42-42.25-1.16-49.27c-7.58-7.02-19.97-.31-19.97-.31l-25.16 16.91s-111.74 35.61-151.15 26.74c0 0 58.66 44.74 79.84 103.13 21.18 58.39 27.04 84.81 27.04 84.81s25.96-12.32 68.03-18.27c42.08-5.96 22.53-163.74 22.53-163.74z"></path><path fill="#797dff" d="M2067.94 1315.75s54.84-39.83 43.01-.56c-11.84 39.27-136.46 60.77-136.46 60.77s127.4 130.84 110.25 184.74c0 0 28.9 2.85 68.53 22.46s59.37-24.94 52.48-64.9c0 0-79.78-212.53-91.59-224.21-11.82-11.67-46.22 21.7-46.22 21.7z"></path><path fill="#b8bdf4" d="M2107.01 1582.02s24.84-7.69 65.53-15.92c14.08-2.81 34.1-8.47 31.72-41.37-.62-8.36-5.69-26.28-13.17-48.63-7.73-23.13-18.05-51.09-28.7-78.05-19.48-49.19-40.09-95.33-48.16-103.88 1.69 2.46 29.65 45.02-18.57 74.28-48.02 29.12-72.23 22.96-73.78 22.57 2.55 2.97 97.58 113.44 85.13 191z"></path><path fill="#eff0f9" d="M2101.05 1392.74c-.08-.11-.16-.22-.24-.34 23.59-15.76 32.05-37.01 32.17-37.31a1.37 1.37 0 0 1 1.75-.79c.7.27 1.05 1.05.79 1.75-.12.31-8.84 22.28-33.12 38.55-.46-.62-.9-1.25-1.35-1.86zM2064.72 1407.01c10.81-2.06 19.99-5.56 27.89-9.73.26.36.52.73.78 1.09.27.38.54.75.81 1.13-8.19 4.37-17.73 8.03-28.98 10.18h-.02c-.73.13-1.42-.35-1.56-1.08-.14-.74.35-1.45 1.08-1.59zM2126.93 1395.43c9.92-11.13 13.62-21.06 13.7-21.26.25-.7 1.02-1.07 1.73-.82.7.25 1.07 1.02.83 1.73-.08.21-3.95 10.71-14.42 22.37a26.83 26.83 0 0 1-1.84-2.02zM2071.71 1424.67c.45-.15.72-.12 1.07-.18 22.55-3.89 38.16-13.62 48.7-23.49.59.68 1.2 1.33 1.85 1.97-10.87 10.19-26.93 20.2-50.09 24.2l-1.08.18c-.74.12-1.44-.38-1.55-1.12-.12-.74.37-1.44 1.1-1.56zM2078.72 1442.31c11.32-1.53 20.84-4.53 28.95-8.26.31.86.63 1.71.99 2.55-7.27 3.32-15.67 6.06-25.4 7.74-1.36.23-2.76.45-4.17.64-.74.1-1.42-.42-1.53-1.16-.1-.72.43-1.44 1.16-1.51zM2114.58 1430.52c25.83-14.78 33.58-36.97 33.68-37.27.24-.71 1.01-1.1 1.71-.86.71.23 1.1 1 .86 1.71-.1.32-8.15 23.67-35.28 39-.34-.86-.67-1.72-.97-2.58zM2093.27 1461.63c52.71-9.1 65.1-48.11 65.23-48.52.21-.71-.19-1.47-.9-1.69-.71-.22-1.47.18-1.69.9-.13.41-13.14 41.26-70.19 47.65-.76.05-1.28.76-1.19 1.5.08.74.75 1.28 1.5 1.19 2.49-.28 4.9-.63 7.24-1.03zM2092.72 1477.62c12.73-1.13 23.15-3.97 31.85-7.66.45.79.86 1.61 1.31 2.4-6.52 2.78-13.95 5.12-22.61 6.62-3.27.56-6.71 1.02-10.31 1.33-.74.07-1.4-.48-1.47-1.23-.07-.74.56-1.39 1.23-1.46zM2131.53 1466.65c25.57-13.75 31.94-34.95 32.02-35.25.2-.73.96-1.14 1.67-.94.72.2 1.14.95.94 1.66-.09.31-6.69 22.58-33.33 36.91-.45-.78-.85-1.59-1.3-2.38zM2154.31 1475.09c13.41-11.81 16.83-24.38 16.89-24.6.18-.73.92-1.17 1.64-.98.73.18 1.16.92.98 1.64-.06.24-3.71 13.65-17.91 26.11-.5-.75-1.04-1.47-1.6-2.17zM2099.71 1495.27c22.28-1.5 37.79-7.93 48.55-15.45.41.51.82 1.02 1.2 1.55.15.21.3.43.45.65-8.82 6.19-20.71 11.63-36.67 14.39-4.16.72-8.61 1.25-13.34 1.57-.75.05-1.39-.51-1.44-1.26-.06-.75.52-1.43 1.25-1.45zM2167.77 1488.42c8.78-9.73 11.04-18.67 11.08-18.86.16-.73.89-1.18 1.62-1.02.73.16 1.19.89 1.02 1.62-.05.21-2.55 10.25-12.46 20.86-.44-.86-.87-1.72-1.26-2.6zM2161.93 1494.07c.42.81.84 1.62 1.28 2.42-6.14 5.12-14.21 10.01-24.88 13.58-.02-.06-.05-.12-.08-.18-.12-.34-.26-.69-.35-1.04.24.96-.02-.06-.06-.21-.11-.38-.21-.77-.32-1.15 10.56-3.54 18.47-8.38 24.41-13.42zM2106.7 1512.93c8.89-.42 16.59-1.65 23.47-3.35.25.89.5 1.77.79 2.65-2.49.62-5.05 1.2-7.78 1.67-5.02.87-10.46 1.47-16.35 1.74-.75.04-1.38-.54-1.42-1.29-.03-.75.59-1.4 1.29-1.42zM2159.82 1519.63c22.54-12.35 26.62-30.72 26.67-30.99.14-.73.85-1.2 1.59-1.06.73.15 1.21.86 1.07 1.59-.06.29-4.37 19.99-28.31 32.99-.34-.85-.69-1.68-1.02-2.53zM2113.69 1530.58c16.47-.45 29.23-3.44 39.17-7.6.33.83.68 1.65 1.01 2.48-5.93 2.49-12.74 4.6-20.78 5.98-5.83 1.01-12.25 1.65-19.32 1.85-.75.02-1.37-.57-1.39-1.32-.02-.74.58-1.37 1.31-1.39zM2148.05 1545.16c40.53-9.33 46.04-37.11 46.09-37.44.13-.74.83-1.23 1.57-1.1.73.13 1.23.82 1.11 1.56-.06.35-5.72 29.85-47.97 39.62-.32-.86-.54-1.77-.8-2.64zM2120.69 1548.24c7.33-.07 13.83-.68 19.79-1.6.26.88.46 1.78.76 2.64-6.17.97-12.93 1.6-20.53 1.67-.75.01-1.36-.6-1.36-1.34-.01-.76.6-1.38 1.34-1.37z" opacity=".35"></path><path fill="#916640" d="m2179.61 1474.57 11.48 1.54c-7.73-23.13-18.05-51.09-28.7-78.05l-2.21 3.82c-4.61 5.45 1.61 20.41 1.61 20.41s-18.38 23.45-55.04 17.74c0 0-1.48 48.46 72.86 34.54z" opacity=".19"></path><path fill="#efd9d3" d="M2125.2 1466.92c.96-5.24 24.46-8.38 24.46-8.38s-38.18-.95-36.7-6.68c1.48-5.72 34.67-5.7 34.67-5.7s-41.78-2.37-43.61-8.48c-1.83-6.1 43.53-2.34 43.53-2.34s-38.36-9.78-37.25-15.52c1.11-5.74 39.81 4.28 48.23 4.61 5.46.21 8.82-3.68 4.43-7.37-4.38-3.69-5.64-14.99-1.8-16.85 3.84-1.86 10.77 15.75 17.5 17.27 6.73 1.52 14.1 5.16 15.76 8.58 6.38 6.65 18.57-7.06 18.57-7.06.41 2.53 18.79 21.54 4.91 30.94l-22.27 9.74s-7.4 2.64-18.28 4.48c-10.88 1.85-53.11 8-52.15 2.76z"></path><path fill="#b8bdf4" d="M2294.91 1023.29s165.56 116.88 174.06 243.99c6.7 100.14-261.87 193.63-261.87 193.63l-6.62-35.93 132.96-147.2s-72.31-230.44-38.53-254.49z"></path><path fill="#eff0f9" d="M2161.91 1400.57c1.35.12 2.6 2.22 3.09 3.09 0 0-1.01 1.75-1.87.92-.87-.83-2.57-4.13-1.22-4.01zM2110.88 1419.89c.61-1.26 5.02-.91 5.37-.55 0 0-.94 3.47-1.37 3.99-.43.52-4.62-2.18-4-3.44zM2105.29 1437.62c.25-1.38 4.59-2.22 5.02-1.97 0 0 .03 3.59-.24 4.21-.27.61-5.02-.86-4.78-2.24zM2114.57 1452.17c.19-1.39 4.48-2.43 4.92-2.2 0 0 .19 3.59-.05 4.21-.24.63-5.06-.62-4.87-2.01zM2126.29 1466.85c.05-1.17 3.53-2.36 3.92-2.2 0 0 .44 2.96.28 3.5s-4.25-.14-4.2-1.3z" opacity=".5"></path><path fill="#797dff" d="M991.35 606.15c-20.62 16.52-42.58 15.89-60.43 13.11 2.35-2.43 4.71-4.86 7.08-7.29-1.95-2.37-3.92-4.74-5.89-7.1.03-.09 30.47 4.58 41.94-3.23 1.22 1.78 2.44 3.56 3.65 5.35 0 0 6.14 1.48 13.65-.84z"></path><path fill="#b8bdf4" d="M737.29 722.78c-.04-.01-9.68 14.84-8.55 18.91-1.5-.68-3-1.35-4.51-2.02-1.24.17-2.49.35-3.73.53 0 0 2.22-11.94 7.31-20.21l3.72 2.58 5.76.21z"></path><path fill="#797dff" d="M887.39 675.7c-.01 0 11.74.77 22.6 7.14-1.22 1.19-2.44 2.38-3.65 3.58.41 1.63.83 3.25 1.24 4.88.02-.04-18.3-4.96-24.32-4.46-.52-2.05-1.04-4.1-1.57-6.15 1.89-1.66 3.79-3.33 5.7-4.99z"></path><path fill="#b8bdf4" d="M1018.05 696.2c.01 0-7.68-6.4-17.78-9.73.13 1.34.27 2.67.4 4-1.06.24-2.12.48-3.19.72 0-.01 8.38 2.13 13.79 6.43.28-.69.57-1.38.86-2.07 1.97.21 3.94.43 5.92.65zM761.62 577.84c.1-.14 35.6 12.7 40.51 13.98-2.72.36-5.44.73-8.16 1.1 1.06 1.78 2.11 3.56 3.16 5.34.09-.16-37.4-11.2-41.75-11.7 1.81-1.07 3.62-2.13 5.43-3.19l.81-5.53z"></path><path fill="#797dff" d="M1240.06 853.77c-20.7 16.41-42.66 15.67-60.5 12.79 2.36-2.42 4.74-4.84 7.12-7.25a961.6 961.6 0 0 0-5.86-7.13c.03-.09 30.45 4.74 41.96-3.01 1.21 1.79 2.42 3.58 3.62 5.37.02-.01 6.15 1.51 13.66-.77z"></path><path fill="#b8bdf4" d="M985.4 969.06c-.04-.01-9.75 14.79-8.65 18.87-1.5-.68-2.99-1.36-4.5-2.04l-3.74.51s2.28-11.92 7.42-20.17c1.24.86 2.47 1.73 3.7 2.6 1.93.07 3.85.15 5.77.23z"></path><path fill="#797dff" d="M1135.74 922.77c-.01 0 11.73.83 22.57 7.26-1.23 1.18-2.45 2.37-3.67 3.56.41 1.63.81 3.26 1.21 4.88.02-.04-18.27-5.05-24.3-4.58-.51-2.05-1.02-4.1-1.54-6.15 1.91-1.67 3.82-3.32 5.73-4.97z"></path><path fill="#b8bdf4" d="M1266.29 943.95s-7.65-6.44-17.73-9.82c.13 1.34.25 2.67.38 4.01-1.06.23-2.13.47-3.19.7 0 0 8.36 2.17 13.75 6.5l.87-2.07c1.97.22 3.94.45 5.92.68zM1010.49 824.25c.1-.14 35.53 12.89 40.43 14.19-2.72.35-5.44.7-8.16 1.06 1.05 1.78 2.09 3.57 3.13 5.35.09-.16-37.34-11.4-41.69-11.92 1.81-1.06 3.63-2.11 5.45-3.17.28-1.83.56-3.67.84-5.51z"></path><path fill="#797dff" d="M1905.33 577.66c-7.02 31.97-28.03 43.02-46.66 49.02.43-4.28.86-8.57 1.3-12.85a1206.6 1206.6 0 0 0-10.7-5.69c-.04-.1 31.77-10.6 36.65-26.63 2.46 1.55 4.9 3.11 7.34 4.67.01 0 6.81-1.5 12.07-8.52z"></path><path fill="#b8bdf4" d="M1749.03 852.42c-.02 0 .67 23.07 4.28 27.69-1.82-.17-3.64-.34-5.46-.5-1.04.78-2.08 1.57-3.11 2.35.01 0-5.61-16.01-6.33-28.69 1.72.51 3.43 1.02 5.14 1.54 1.82-.8 3.65-1.6 5.48-2.39zM1857.57 720.1c-.02.01 11.48-5.07 25.88-2.69l-1.02 6.41c1.47 1.84 2.93 3.67 4.39 5.51 0-.04-20.35 3.21-25.64 6.91-1.85-2.32-3.71-4.63-5.57-6.94.65-3.07 1.3-6.14 1.96-9.2zM1993.11 676.29c.01 0-11.4-3.85-23.05-2.53 1.02 1.62 2.03 3.23 3.04 4.85-.83.89-1.66 1.77-2.49 2.66-.01 0 9.23-1.89 17.11.58-.19-1.03-.37-2.07-.56-3.1 1.98-.82 3.96-1.64 5.95-2.46zM1668.93 661.97c.03-.2 43.36-2.07 48.88-2.97-2.29 1.8-4.58 3.6-6.85 5.4 2.34 1.65 4.66 3.3 6.98 4.96.01-.21-43.69 4.75-48.24 6.23.9-2.18 1.8-4.35 2.71-6.53-1.16-2.36-2.32-4.72-3.48-7.09z"></path><path fill="#797dff" d="M1595.2 1012.32c-22.59-8.66-26.54-20.53-26.58-30.57 3.16.95 6.32 1.92 9.47 2.9 2.31-1.34 4.62-2.68 6.94-4.02-.01.01.4 16.89 11.5 21.97-1.72.87-3.43 1.74-5.15 2.61 0 .01-.35 3.46 3.82 7.11z"></path><path fill="#b8bdf4" d="M1423.45 885.72c.02-.03-18.61-3.61-23.52-2.22.74-1.04 1.47-2.08 2.21-3.12-.28-.74-.55-1.49-.83-2.23 0-.01 14.71-.53 25.03 1.38-.99.88-1.98 1.77-2.97 2.65.04 1.18.06 2.36.08 3.54zM1496.95 966.15c.01 0 1.16 6.74-3.85 14.01-1.58-.47-3.17-.93-4.76-1.39-1.75.54-3.5 1.07-5.25 1.62-.01 0 2-11.29.42-14.63 2.24-.66 4.49-1.32 6.74-1.97 2.24.78 4.47 1.57 6.7 2.36zM1504.89 1042.55s4.55-5.57 5.42-11.74c-1.39.35-2.79.71-4.18 1.07-.54-.53-1.09-1.06-1.64-1.58 0 0-.02 5.01-3.05 8.9h2.44c.34 1.12.68 2.23 1.01 3.35zM1600.07 886.17c-.05-.02-14.27 19.92-15.24 22.76-.59-1.47-1.18-2.93-1.77-4.4-2.07.69-4.13 1.37-6.2 2.07-.05-.01 11.75-21.18 12.56-23.52 1.32.95 2.63 1.9 3.95 2.85 2.23.07 4.46.15 6.7.24z"></path></svg>